HIERARCHY
ROOT hip
{
  OFFSET 0 0 0
  CHANNELS 6 Xposition Yposition Zposition Zrotation Yrotation Xrotation
  JOINT abdomen
  {
    OFFSET 0 20.6881 -0.73152
    CHANNELS 3 Zrotation Xrotation Yrotation
    JOINT chest
    {
      OFFSET 0 11.7043 -0.48768
      CHANNELS 3 Zrotation Xrotation Yrotation
      JOINT neck
      {
        OFFSET 0 22.1894 -2.19456
        CHANNELS 3 Zrotation Xrotation Yrotation
        JOINT head
        {
          OFFSET -0.24384 7.07133 1.2192
          CHANNELS 3 Zrotation Xrotation Yrotation
          JOINT leftEye
          {
            OFFSET 4.14528 8.04674 8.04672
            CHANNELS 3 Zrotation Xrotation Yrotation
            End Site
            {
              OFFSET 1 0 0
            }
          }
          JOINT rightEye
          {
            OFFSET -3.6576 8.04674 8.04672
            CHANNELS 3 Zrotation Xrotation Yrotation
            End Site
            {
              OFFSET 1 0 0
            }
          }
        }
      }
      JOINT rCollar
      {
        OFFSET -2.68224 19.2634 -4.8768
        CHANNELS 3 Zrotation Xrotation Yrotation
        JOINT rShldr
        {
          OFFSET -8.77824 -1.95073 1.46304
          CHANNELS 3 Zrotation Xrotation Yrotation
          JOINT rForeArm
          {
            OFFSET -28.1742 -1.7115 0.48768
            CHANNELS 3 Zrotation Xrotation Yrotation
            JOINT rHand
            {
              OFFSET -22.5879 0.773209 7.07136
              CHANNELS 3 Zrotation Xrotation Yrotation
              JOINT rThumb1
              {
                OFFSET -1.2192 -0.487915 3.41376
                CHANNELS 3 Zrotation Xrotation Yrotation
                JOINT rThumb2
                {
                  OFFSET -3.37035 -0.52449 3.41376
                  CHANNELS 3 Zrotation Xrotation Yrotation
                  End Site
                  {
                    OFFSET -1.78271 -1.18214 1.43049
                  }
                }
              }
              JOINT rIndex1
              {
                OFFSET -7.75947 0.938293 5.60832
                CHANNELS 3 Zrotation Xrotation Yrotation
                JOINT rIndex2
                {
                  OFFSET -2.54057 -0.884171 1.56538
                  CHANNELS 3 Zrotation Xrotation Yrotation
                  End Site
                  {
                    OFFSET -1.62519 -0.234802 1.16502
                  }
                }
              }
              JOINT rMid1
              {
                OFFSET -8.24714 1.18213 3.41376
                CHANNELS 3 Zrotation Xrotation Yrotation
                JOINT rMid2
                {
                  OFFSET -3.10165 -0.590103 1.0647
                  CHANNELS 3 Zrotation Xrotation Yrotation
                  End Site
                  {
                    OFFSET -2.48547 -0.328903 0.83742
                  }
                }
              }
              JOINT rRing1
              {
                OFFSET -8.82822 0.546677 1.51678
                CHANNELS 3 Zrotation Xrotation Yrotation
                JOINT rRing2
                {
                  OFFSET -2.60934 -0.819778 -0.0198488
                  CHANNELS 3 Zrotation Xrotation Yrotation
                  End Site
                  {
                    OFFSET -2.33842 -0.294052 0.168128
                  }
                }
              }
              JOINT rPinky1
              {
                OFFSET -8.27202 -0.0477905 -0.4584
                CHANNELS 3 Zrotation Xrotation Yrotation
                JOINT rPinky2
                {
                  OFFSET -1.82734 -0.647385 -0.700984
                  CHANNELS 3 Zrotation Xrotation Yrotation
                  End Site
                  {
                    OFFSET -1.69225 -0.51767 -0.607171
                  }
                }
              }
            }
          }
        }
      }
      JOINT lCollar
      {
        OFFSET 2.68224 19.2634 -4.8768
        CHANNELS 3 Zrotation Xrotation Yrotation
        JOINT lShldr
        {
          OFFSET 8.77824 -1.95073 1.46304
          CHANNELS 3 Zrotation Xrotation Yrotation
          JOINT lForeArm
          {
            OFFSET 28.1742 -1.7115 0.48768
            CHANNELS 3 Zrotation Xrotation Yrotation
            JOINT lHand
            {
              OFFSET 22.5879 0.773209 7.07136
              CHANNELS 3 Zrotation Xrotation Yrotation
              JOINT lThumb1
              {
                OFFSET 1.2192 -0.487915 3.41376
                CHANNELS 3 Zrotation Xrotation Yrotation
                JOINT lThumb2
                {
                  OFFSET 3.37035 -0.52449 3.41376
                  CHANNELS 3 Zrotation Xrotation Yrotation
                  End Site
                  {
                    OFFSET 1.78271 -1.18214 1.43049
                  }
                }
              }
              JOINT lIndex1
              {
                OFFSET 7.75947 0.938293 5.60832
                CHANNELS 3 Zrotation Xrotation Yrotation
                JOINT lIndex2
                {
                  OFFSET 2.54057 -0.884171 1.56538
                  CHANNELS 3 Zrotation Xrotation Yrotation
                  End Site
                  {
                    OFFSET 1.62519 -0.234802 1.16502
                  }
                }
              }
              JOINT lMid1
              {
                OFFSET 8.24714 1.18213 3.41376
                CHANNELS 3 Zrotation Xrotation Yrotation
                JOINT lMid2
                {
                  OFFSET 3.10165 -0.590103 1.0647
                  CHANNELS 3 Zrotation Xrotation Yrotation
                  End Site
                  {
                    OFFSET 2.48547 -0.328903 0.83742
                  }
                }
              }
              JOINT lRing1
              {
                OFFSET 8.82822 0.546677 1.51678
                CHANNELS 3 Zrotation Xrotation Yrotation
                JOINT lRing2
                {
                  OFFSET 2.60934 -0.819778 -0.0198488
                  CHANNELS 3 Zrotation Xrotation Yrotation
                  End Site
                  {
                    OFFSET 2.33842 -0.294052 0.168128
                  }
                }
              }
              JOINT lPinky1
              {
                OFFSET 8.27202 -0.0477905 -0.4584
                CHANNELS 3 Zrotation Xrotation Yrotation
                JOINT lPinky2
                {
                  OFFSET 1.82734 -0.647385 -0.700984
                  CHANNELS 3 Zrotation Xrotation Yrotation
                  End Site
                  {
                    OFFSET 1.69225 -0.51767 -0.607171
                  }
                }
              }
            }
          }
        }
      }
    }
  }
  JOINT rButtock
  {
    OFFSET -8.77824 4.35084 1.2192
    CHANNELS 3 Zrotation Xrotation Yrotation
    JOINT rThigh
    {
      OFFSET 0 -1.70687 -2.19456
      CHANNELS 3 Zrotation Xrotation Yrotation
      JOINT rShin
      {
        OFFSET 0 -36.8199 0.73152
        CHANNELS 3 Zrotation Xrotation Yrotation
        JOINT rFoot
        {
          OFFSET 0.73152 -45.1104 -5.12064
          CHANNELS 3 Zrotation Xrotation Yrotation
          End Site
          {
            OFFSET -1.1221 -3.69964 12.103
          }
        }
      }
    }
  }
  JOINT lButtock
  {
    OFFSET 8.77824 4.35084 1.2192
    CHANNELS 3 Zrotation Xrotation Yrotation
    JOINT lThigh
    {
      OFFSET 0 -1.70687 -2.19456
      CHANNELS 3 Zrotation Xrotation Yrotation
      JOINT lShin
      {
        OFFSET 0 -36.8199 0.73152
        CHANNELS 3 Zrotation Xrotation Yrotation
        JOINT lFoot
        {
          OFFSET -0.73152 -45.1104 -5.12064
          CHANNELS 3 Zrotation Xrotation Yrotation
          End Site
          {
            OFFSET 1.1221 -3.69964 12.103
          }
        }
      }
    }
  }
}
MOTION
Frames:	6
Frame Time:	0.00833333
30.868 80.8565 -63.1391 291.509 84.5664 301.812 10.4955 21.1704 -2.85189 1.56954 -8.62248 0.0541054 7.98723 11.6695 1.0678 -20.4804 -43.0004 -5.98718 -0.0 0.0 0.0 -0.0 0.0 0.0 1.94783e-14 -9.2427e-13 5.6635e-14 78.9757 28.8988 -17.9391 -17.5721 -10.2249 33.0931 -0.0844987 8.32307 1.17787 1.45508e-10 -1.17362e-10 -4.42306e-10 2.49552e-10 -1.99784e-10 -7.67486e-10 1.45515e-10 -1.17361e-10 -4.42316e-10 7.73091 5.47488 0.417314 1.45498e-10 -1.17365e-10 -4.42295e-10 2.90554 0.965183 0.102902 1.45517e-10 -1.17362e-10 -4.42315e-10 10.2786 0.731801 0.0259123 1.45496e-10 -1.17365e-10 -4.4229e-10 2.22167 -0.733487 -0.20892 1.95841e-14 -9.24264e-13 5.63772e-14 -82.7387 43.7596 15.3958 20.3756 -13.4963 -39.5906 0.101116 9.11994 -1.29244 8.77527e-10 1.83461e-10 -4.94906e-10 1.51875e-09 3.1266e-10 -8.61247e-10 8.77527e-10 1.83461e-10 -4.94896e-10 -7.73091 5.47488 -0.417314 8.77525e-10 1.83461e-10 -4.949e-10 -2.90554 0.965183 -0.102902 8.77517e-10 1.8346e-10 -4.94903e-10 -10.2786 0.731801 -0.0259123 8.77537e-10 1.83462e-10 -4.94912e-10 -2.22167 -0.733487 0.20892 -2.03217e-16 0.0 -3.88251e-19 12.3105 -23.9379 12.3167 -0.240149 34.3497 0.470521 -1.40181 -18.16 -2.41759 2.03217e-16 0.0 3.88251e-19 16.6136 -22.9314 5.80457 1.34821 63.1148 -1.57595 -4.8982 -10.0856 -16.0797
31.6245 80.6683 -63.0349 295.749 84.1712 306.028 10.9152 21.4529 -2.2543 1.38815 -8.59104 0.247895 8.17526 11.7776 1.05326 -20.9768 -43.2163 -6.24796 -0.0 0.0 0.0 -0.0 0.0 0.0 -4.67899e-14 -7.53424e-13 9.76219e-14 78.7546 29.7354 -17.0163 -17.6973 -10.3554 33.372 -0.102278 9.13309 1.29447 -4.10487e-10 -2.17995e-10 8.05516e-10 -7.03662e-10 -3.77824e-10 1.39991e-09 -4.10475e-10 -2.17993e-10 8.05508e-10 7.73091 5.47488 0.417314 -4.10492e-10 -2.17996e-10 8.05525e-10 2.90554 0.965183 0.102902 -4.10471e-10 -2.17995e-10 8.05508e-10 10.2786 0.731801 0.0259123 -4.10492e-10 -2.17996e-10 8.05531e-10 2.22167 -0.733487 -0.20892 -4.66793e-14 -7.53411e-13 9.73676e-14 -84.4556 43.6315 17.1958 19.9316 -12.9329 -38.4939 0.123 10.0052 -1.42052 1.92028e-09 -1.16644e-09 7.057e-10 3.32764e-09 -2.02103e-09 1.19775e-09 1.92028e-09 -1.16644e-09 7.05714e-10 -7.73091 5.47488 -0.417314 1.92028e-09 -1.16644e-09 7.05706e-10 -2.90554 0.965183 -0.102902 1.92027e-09 -1.16644e-09 7.05704e-10 -10.2786 0.731801 -0.0259123 1.92029e-09 -1.16644e-09 7.05696e-10 -2.22167 -0.733487 0.20892 -2.03217e-16 0.0 -3.88251e-19 12.7746 -23.4541 12.6956 -0.241431 34.5827 0.472566 -1.39068 -18.6284 -2.38718 2.03217e-16 0.0 3.88251e-19 17.3962 -24.6468 6.56335 1.57187 65.3895 -1.74317 -5.53087 -10.4264 -17.2752
32.3817 80.4928 -62.9486 299.754 83.8343 310.085 11.1719 21.6482 -1.64104 1.22859 -8.56125 0.432012 8.33417 11.8764 1.03067 -21.4244 -43.4146 -6.50308 -0.0 0.0 0.0 -0.0 0.0 0.0 -7.95612e-14 -7.18118e-13 1.25731e-13 78.5731 30.5974 -16.2378 -17.9452 -10.6278 33.8972 -0.11744 9.72588 1.3803 -8.6408e-10 -2.66426e-10 1.43468e-09 -1.48385e-09 -4.64577e-10 2.49527e-09 -8.64067e-10 -2.66424e-10 1.43468e-09 7.73091 5.47488 0.417314 -8.64082e-10 -2.66425e-10 1.43469e-09 2.90554 0.965183 0.102902 -8.64061e-10 -2.66425e-10 1.43468e-09 10.2786 0.731801 0.0259123 -8.64081e-10 -2.66426e-10 1.4347e-09 2.22167 -0.733487 -0.20892 -7.94719e-14 -7.181e-13 1.25483e-13 -86.1333 43.5815 19.0655 19.5476 -12.4533 -37.5927 0.143468 10.7353 -1.52684 2.50981e-09 -2.03098e-09 1.35157e-09 4.34951e-09 -3.51516e-09 2.30403e-09 2.50981e-09 -2.03098e-09 1.35159e-09 -7.73091 5.47488 -0.417314 2.50981e-09 -2.03099e-09 1.35158e-09 -2.90554 0.965183 -0.102902 2.5098e-09 -2.03098e-09 1.35158e-09 -10.2786 0.731801 -0.0259123 2.50982e-09 -2.03098e-09 1.35157e-09 -2.22167 -0.733487 0.20892 -2.03217e-16 0.0 -3.88251e-19 13.0908 -22.986 13.0012 -0.241269 34.7519 0.478583 -1.3681 -19.0709 -2.32283 2.03217e-16 0.0 3.88251e-19 18.0494 -26.3669 7.26882 1.7886 67.2852 -1.90941 -6.124 -10.7612 -18.3565
33.1421 80.33 -62.8805 303.521 83.5558 313.963 11.2272 21.7216 -0.995369 1.10057 -8.52841 0.607736 8.45658 11.9625 0.998355 -21.814 -43.5839 -6.75004 -0.0 0.0 0.0 -0.0 0.0 0.0 -6.18387e-14 -8.20449e-13 1.30798e-13 78.4519 31.5012 -15.6278 -18.3072 -11.0235 34.7107 -0.128105 10.1016 1.43494 -1.24602e-09 -2.39841e-10 1.1191e-09 -2.1463e-09 -4.20401e-10 1.95456e-09 -1.246e-09 -2.39841e-10 1.1191e-09 7.73091 5.47488 0.417314 -1.24602e-09 -2.39842e-10 1.11911e-09 2.90554 0.965183 0.102902 -1.246e-09 -2.39843e-10 1.1191e-09 10.2786 0.731801 0.0259123 -1.24602e-09 -2.39842e-10 1.11911e-09 2.22167 -0.733487 -0.20892 -6.18213e-14 -8.20135e-13 1.30552e-13 -87.7907 43.6139 21.0228 19.239 -12.0766 -36.8876 0.160338 11.3159 -1.61166 2.40823e-09 -2.20472e-09 1.11906e-09 4.17075e-09 -3.81404e-09 1.90095e-09 2.40823e-09 -2.20472e-09 1.11908e-09 -7.73091 5.47488 -0.417314 2.40823e-09 -2.20473e-09 1.11907e-09 -2.90554 0.965183 -0.102902 2.40822e-09 -2.20472e-09 1.11907e-09 -10.2786 0.731801 -0.0259123 2.40824e-09 -2.20472e-09 1.11906e-09 -2.22167 -0.733487 0.20892 -2.03217e-16 0.0 -3.88251e-19 13.2406 -22.5794 13.234 -0.23987 34.8925 0.490545 -1.33472 -19.5089 -2.22459 2.03217e-16 0.0 3.88251e-19 18.5512 -28.1362 7.94855 1.99185 68.8043 -2.06856 -6.67202 -11.0746 -19.3194
33.9187 80.2069 -62.8267 306.982 83.3339 317.57 11.0962 21.6927 -0.316865 0.998664 -8.49377 0.778106 8.55456 12.0309 0.959355 -22.1541 -43.713 -6.9859 -0.0 0.0 0.0 -0.0 0.0 0.0 -1.4713e-14 -1.00051e-12 1.23778e-13 78.3764 32.4707 -15.149 -18.7532 -11.5126 35.7685 -0.134089 10.3135 1.46578 -1.62252e-09 -1.68479e-10 2.483e-10 -2.80304e-09 -2.98335e-10 4.52851e-10 -1.62251e-09 -1.6848e-10 2.48298e-10 7.73091 5.47488 0.417314 -1.62252e-09 -1.68481e-10 2.48302e-10 2.90554 0.965183 0.102902 -1.62251e-09 -1.68482e-10 2.48297e-10 10.2786 0.731801 0.0259123 -1.62252e-09 -1.68481e-10 2.48308e-10 2.22167 -0.733487 -0.20892 -1.48059e-14 -9.99706e-13 1.23532e-13 -89.4315 43.684 23.0613 19.0038 -11.802 -36.3343 0.174732 11.8098 -1.684 1.87741e-09 -2.00507e-09 3.81946e-10 3.24632e-09 -3.46661e-09 6.30795e-10 1.8774e-09 -2.00507e-09 3.81959e-10 -7.73091 5.47488 -0.417314 1.87741e-09 -2.00508e-09 3.8195e-10 -2.90554 0.965183 -0.102902 1.8774e-09 -2.00508e-09 3.81951e-10 -10.2786 0.731801 -0.0259123 1.87742e-09 -2.00508e-09 3.81942e-10 -2.22167 -0.733487 0.20892 -2.03217e-16 0.0 -3.88251e-19 13.2501 -22.223 13.4195 -0.237523 35.0081 0.507893 -1.2945 -19.943 -2.10452 2.03217e-16 0.0 3.88251e-19 18.9343 -29.9425 8.62768 2.17874 69.9835 -2.21592 -7.20664 -11.4017 -20.2144
34.7128 80.1054 -62.7875 310.139 83.1602 320.879 10.866 21.6239 0.352352 0.905236 -8.46702 0.937984 8.6357 12.0932 0.915108 -22.4572 -43.836 -7.21725 -0.0 0.0 0.0 -0.0 0.0 0.0 3.93912e-14 -1.29852e-12 1.19324e-13 78.3336 33.4555 -14.7881 -19.2837 -12.1235 37.0228 -0.133846 10.3214 1.46686 -1.87476e-09 -8.09848e-11 -7.3615e-10 -3.24563e-09 -1.47798e-10 -1.24705e-09 -1.87475e-09 -8.09876e-11 -7.3615e-10 7.73091 5.47488 0.417314 -1.87476e-09 -8.09888e-11 -7.36151e-10 2.90554 0.965183 0.102902 -1.87475e-09 -8.09903e-11 -7.36151e-10 10.2786 0.731801 0.0259123 -1.87476e-09 -8.09888e-11 -7.36144e-10 2.22167 -0.733487 -0.20892 3.91953e-14 -1.29762e-12 1.19091e-13 -91.0575 43.7904 25.1736 18.845 -11.623 -35.9511 0.184983 12.1579 -1.73509 1.2562e-09 -1.65622e-09 -4.11912e-10 2.16558e-09 -2.86152e-09 -7.35676e-10 1.2562e-09 -1.65623e-09 -4.11901e-10 -7.73091 5.47488 -0.417314 1.25621e-09 -1.65623e-09 -4.1191e-10 -2.90554 0.965183 -0.102902 1.25619e-09 -1.65623e-09 -4.11907e-10 -10.2786 0.731801 -0.0259123 1.25621e-09 -1.65623e-09 -4.11918e-10 -2.22167 -0.733487 0.20892 -2.03217e-16 0.0 -3.88251e-19 13.1489 -21.8225 13.5405 -0.233539 35.0172 0.526588 -1.24038 -20.3247 -1.9525 2.03217e-16 0.0 3.88251e-19 19.2047 -31.6988 9.2249 2.32473 70.7906 -2.32788 -7.70879 -11.7568 -21.0125
